HIERARCHY
ROOT hip
{
  OFFSET 0 0 0
  CHANNELS 6 Xposition Yposition Zposition Zrotation Yrotation Xrotation
  JOINT abdomen
  {
    OFFSET 0 20.6881 -0.73152
    CHANNELS 3 Zrotation Xrotation Yrotation
    JOINT chest
    {
      OFFSET 0 11.7043 -0.48768
      CHANNELS 3 Zrotation Xrotation Yrotation
      JOINT neck
      {
        OFFSET 0 22.1894 -2.19456
        CHANNELS 3 Zrotation Xrotation Yrotation
        JOINT head
        {
          OFFSET -0.24384 7.07133 1.2192
          CHANNELS 3 Zrotation Xrotation Yrotation
          JOINT leftEye
          {
            OFFSET 4.14528 8.04674 8.04672
            CHANNELS 3 Zrotation Xrotation Yrotation
            End Site
            {
              OFFSET 1 0 0
            }
          }
          JOINT rightEye
          {
            OFFSET -3.6576 8.04674 8.04672
            CHANNELS 3 Zrotation Xrotation Yrotation
            End Site
            {
              OFFSET 1 0 0
            }
          }
        }
      }
      JOINT rCollar
      {
        OFFSET -2.68224 19.2634 -4.8768
        CHANNELS 3 Zrotation Xrotation Yrotation
        JOINT rShldr
        {
          OFFSET -8.77824 -1.95073 1.46304
          CHANNELS 3 Zrotation Xrotation Yrotation
          JOINT rForeArm
          {
            OFFSET -28.1742 -1.7115 0.48768
            CHANNELS 3 Zrotation Xrotation Yrotation
            JOINT rHand
            {
              OFFSET -22.5879 0.773209 7.07136
              CHANNELS 3 Zrotation Xrotation Yrotation
              JOINT rThumb1
              {
                OFFSET -1.2192 -0.487915 3.41376
                CHANNELS 3 Zrotation Xrotation Yrotation
                JOINT rThumb2
                {
                  OFFSET -3.37035 -0.52449 3.41376
                  CHANNELS 3 Zrotation Xrotation Yrotation
                  End Site
                  {
                    OFFSET -1.78271 -1.18214 1.43049
                  }
                }
              }
              JOINT rIndex1
              {
                OFFSET -7.75947 0.938293 5.60832
                CHANNELS 3 Zrotation Xrotation Yrotation
                JOINT rIndex2
                {
                  OFFSET -2.54057 -0.884171 1.56538
                  CHANNELS 3 Zrotation Xrotation Yrotation
                  End Site
                  {
                    OFFSET -1.62519 -0.234802 1.16502
                  }
                }
              }
              JOINT rMid1
              {
                OFFSET -8.24714 1.18213 3.41376
                CHANNELS 3 Zrotation Xrotation Yrotation
                JOINT rMid2
                {
                  OFFSET -3.10165 -0.590103 1.0647
                  CHANNELS 3 Zrotation Xrotation Yrotation
                  End Site
                  {
                    OFFSET -2.48547 -0.328903 0.83742
                  }
                }
              }
              JOINT rRing1
              {
                OFFSET -8.82822 0.546677 1.51678
                CHANNELS 3 Zrotation Xrotation Yrotation
                JOINT rRing2
                {
                  OFFSET -2.60934 -0.819778 -0.0198488
                  CHANNELS 3 Zrotation Xrotation Yrotation
                  End Site
                  {
                    OFFSET -2.33842 -0.294052 0.168128
                  }
                }
              }
              JOINT rPinky1
              {
                OFFSET -8.27202 -0.0477905 -0.4584
                CHANNELS 3 Zrotation Xrotation Yrotation
                JOINT rPinky2
                {
                  OFFSET -1.82734 -0.647385 -0.700984
                  CHANNELS 3 Zrotation Xrotation Yrotation
                  End Site
                  {
                    OFFSET -1.69225 -0.51767 -0.607171
                  }
                }
              }
            }
          }
        }
      }
      JOINT lCollar
      {
        OFFSET 2.68224 19.2634 -4.8768
        CHANNELS 3 Zrotation Xrotation Yrotation
        JOINT lShldr
        {
          OFFSET 8.77824 -1.95073 1.46304
          CHANNELS 3 Zrotation Xrotation Yrotation
          JOINT lForeArm
          {
            OFFSET 28.1742 -1.7115 0.48768
            CHANNELS 3 Zrotation Xrotation Yrotation
            JOINT lHand
            {
              OFFSET 22.5879 0.773209 7.07136
              CHANNELS 3 Zrotation Xrotation Yrotation
              JOINT lThumb1
              {
                OFFSET 1.2192 -0.487915 3.41376
                CHANNELS 3 Zrotation Xrotation Yrotation
                JOINT lThumb2
                {
                  OFFSET 3.37035 -0.52449 3.41376
                  CHANNELS 3 Zrotation Xrotation Yrotation
                  End Site
                  {
                    OFFSET 1.78271 -1.18214 1.43049
                  }
                }
              }
              JOINT lIndex1
              {
                OFFSET 7.75947 0.938293 5.60832
                CHANNELS 3 Zrotation Xrotation Yrotation
                JOINT lIndex2
                {
                  OFFSET 2.54057 -0.884171 1.56538
                  CHANNELS 3 Zrotation Xrotation Yrotation
                  End Site
                  {
                    OFFSET 1.62519 -0.234802 1.16502
                  }
                }
              }
              JOINT lMid1
              {
                OFFSET 8.24714 1.18213 3.41376
                CHANNELS 3 Zrotation Xrotation Yrotation
                JOINT lMid2
                {
                  OFFSET 3.10165 -0.590103 1.0647
                  CHANNELS 3 Zrotation Xrotation Yrotation
                  End Site
                  {
                    OFFSET 2.48547 -0.328903 0.83742
                  }
                }
              }
              JOINT lRing1
              {
                OFFSET 8.82822 0.546677 1.51678
                CHANNELS 3 Zrotation Xrotation Yrotation
                JOINT lRing2
                {
                  OFFSET 2.60934 -0.819778 -0.0198488
                  CHANNELS 3 Zrotation Xrotation Yrotation
                  End Site
                  {
                    OFFSET 2.33842 -0.294052 0.168128
                  }
                }
              }
              JOINT lPinky1
              {
                OFFSET 8.27202 -0.0477905 -0.4584
                CHANNELS 3 Zrotation Xrotation Yrotation
                JOINT lPinky2
                {
                  OFFSET 1.82734 -0.647385 -0.700984
                  CHANNELS 3 Zrotation Xrotation Yrotation
                  End Site
                  {
                    OFFSET 1.69225 -0.51767 -0.607171
                  }
                }
              }
            }
          }
        }
      }
    }
  }
  JOINT rButtock
  {
    OFFSET -8.77824 4.35084 1.2192
    CHANNELS 3 Zrotation Xrotation Yrotation
    JOINT rThigh
    {
      OFFSET 0 -1.70687 -2.19456
      CHANNELS 3 Zrotation Xrotation Yrotation
      JOINT rShin
      {
        OFFSET 0 -36.8199 0.73152
        CHANNELS 3 Zrotation Xrotation Yrotation
        JOINT rFoot
        {
          OFFSET 0.73152 -45.1104 -5.12064
          CHANNELS 3 Zrotation Xrotation Yrotation
          End Site
          {
            OFFSET -1.1221 -3.69964 12.103
          }
        }
      }
    }
  }
  JOINT lButtock
  {
    OFFSET 8.77824 4.35084 1.2192
    CHANNELS 3 Zrotation Xrotation Yrotation
    JOINT lThigh
    {
      OFFSET 0 -1.70687 -2.19456
      CHANNELS 3 Zrotation Xrotation Yrotation
      JOINT lShin
      {
        OFFSET 0 -36.8199 0.73152
        CHANNELS 3 Zrotation Xrotation Yrotation
        JOINT lFoot
        {
          OFFSET -0.73152 -45.1104 -5.12064
          CHANNELS 3 Zrotation Xrotation Yrotation
          End Site
          {
            OFFSET 1.1221 -3.69964 12.103
          }
        }
      }
    }
  }
}
MOTION
Frames:	4
Frame Time:	0.03333
0.0 0.0 0.0 0.0 0.0 0.0 0.0 0.0 0.0 0.0 0.0 0.0 0.0 0.0 0.0 0.0 0.0 0.0 0.0 0.0 0.0 0.0 0.0 0.0 0.0 0.0 0.0 0.0 0.0 0.0 0.0 0.0 0.0 0.0 0.0 0.0 0.0 0.0 0.0 0.0 0.0 0.0 0.0 0.0 0.0 0.0 0.0 0.0 0.0 0.0 0.0 0.0 0.0 0.0 0.0 0.0 0.0 0.0 0.0 0.0 0.0 0.0 0.0 0.0 0.0 0.0 0.0 0.0 0.0 0.0 0.0 0.0 0.0 0.0 0.0 0.0 0.0 0.0 0.0 0.0 0.0 0.0 0.0 0.0 0.0 0.0 0.0 0.0 0.0 0.0 0.0 0.0 0.0 0.0 0.0 0.0 0.0 0.0 0.0 0.0 0.0 0.0 0.0 0.0 0.0 0.0 0.0 0.0 0.0 0.0 0.0 0.0 0.0 0.0 0.0 0.0 0.0 0.0 0.0 0.0 0.0 0.0 0.0 0.0 0.0 0.0 0.0 0.0 0.0 0.0 0.0 0.0
9.3186 57.1639 -0.5625 -62.556738 81.808929 -58.357019 -1.289948 18.899873 -0.0 3.8926 -13.007747 -1.939988 -15.458394 24.977504 -87.57403 44.205688 18.710725 85.604376 -0.00188 -0.0 0.001911 0.003004 -0.0 -0.004543 -14.147702 43.061708 15.996055 -179.5485 -1.397636 101.948153 -44.634005 -37.227115 -127.232048 101.178322 -64.80783 89.676266 -171.706209 -9.388354 89.94896 0.961328 -54.791305 8.659279 -0.686942 1.108435 0.394662 122.767492 -61.297605 65.158168 7.904632 -24.807549 -3.012417 -7.398574 26.179665 6.043524 0.005516 1.772311 0.556848 -156.648555 -26.311395 174.932598 5.069179 14.897321 4.56876 -85.419512 -53.896164 -84.649689 150.119902 21.701115 -155.219633 26.533231 36.507687 73.006462 171.645348 -9.673371 75.526333 8.997346 49.97049 -5.910289 178.928206 -16.453397 -89.421972 -83.661566 -71.721224 -64.065339 138.493115 4.895972 -114.864388 11.891597 32.944288 -1.717991 160.827067 -7.142108 -143.314672 2.24883 14.690823 -3.042086 -0.001877 -0.06087 0.019011 -10.325631 0.112616 0.052748 133.877919 -15.640029 131.334786 -2.929748 0.187271 1.769626 0.000166 -0.000871 -0.0 -5.028831 -47.722658 -0.0 56.952461 67.492769 -121.211925 -132.362771 -46.83367 -25.810495 179.998765 75.750513 0.001089 -166.409173 6.248561 180.0 -162.454676 -85.0827 59.328577 71.845783 -40.452821 -24.020809
14.099300000000001 57.20420000000001 -1.0814000000000001 -25.171839 74.842177 -22.453037 -2.769112 13.981859 -168.67984 -0.868256 8.770455 170.817394 -8.022308 13.116849 -8.344531 19.255517 -24.819071 21.422893 0.000576 0.0 0.0001 0.000576 0.0 0.0001 -155.614142 -4.236539 161.990607 -92.860452 -35.85554 -62.694705 -36.88924 -67.605135 29.901939 -4.281231 33.505232 3.375483 -0.441178 0.435414 0.070014 -123.227535 -15.138958 110.489545 -14.227987 19.203298 9.560729 178.912283 -35.470326 106.194022 -0.058741 0.16762 0.032893 3.168632 0.194423 -0.001445 -145.106493 3.756763 179.691452 11.509427 26.41421 -5.976972 -148.275859 22.509779 -144.49999 -147.52289 11.007885 -141.550042 14.148263 43.061591 -15.996379 60.837993 -27.470033 -56.929354 114.684497 2.881909 13.045664 -17.527481 -20.572772 -17.997299 174.088424 -11.753544 -89.87503 77.893569 6.89518 -25.307424 179.421106 -58.426485 -117.044538 -56.136574 -57.643457 -5.741741 -89.035258 -81.393102 -59.759417 -9.723294 -20.377964 1.335375 73.163365 -72.142066 90.198326 -5.401644 -62.299231 18.99655 -5.664248 16.87218 -5.085959 -28.199828 75.274947 -6.120605 0.000503 -0.00145 -0.000647 -3.871917 -43.84841 -5.579992 40.957468 75.817098 -111.937097 -62.762269 -66.759927 17.15842 -0.00018 0.001339 -0.000271 40.873991 -67.255978 180.0 84.345044 -39.924614 170.554058 -8.92486 52.983275 94.077195
19.010099999999998 57.4229 -1.5237 -11.48801 65.244223 -10.218971 -4.365141 13.126716 -161.421666 1.699423 8.334774 168.315375 1.281673 30.987952 163.593691 -20.348339 38.871228 -141.538669 0.005447 0.0 0.000159 -0.000249 -0.0 0.000713 -13.743253 42.431813 15.568122 -2.264451 -5.018529 81.999413 171.602494 24.690779 70.453916 154.862033 -34.157152 140.805248 -157.999538 4.19505 88.451217 67.202444 -61.370318 50.546071 -7.26036 10.781018 4.545868 -66.420832 48.38594 50.156713 23.903648 -61.333867 1.398617 -172.318269 -31.321102 143.972108 -0.000357 -0.01865 -0.005054 -156.433479 -23.133534 174.563082 -145.541246 13.243872 -142.151626 -147.567352 11.674094 -141.693158 142.313755 40.592325 -146.687564 92.107717 -35.950634 41.858964 118.246604 3.13984 12.013402 -18.763163 -23.453871 -18.502917 7.351144 7.062386 -1.569584 -45.911934 -60.870275 11.209776 153.453621 -21.067958 -121.743689 61.90661 57.393644 -46.192003 -0.541748 -1.589957 0.29358 163.736471 -6.172717 -143.494546 73.163465 -72.143526 90.197638 -14.727225 0.85322 4.485167 135.067517 -13.384671 132.471222 145.6834 7.780192 140.868855 -0.001135 6.5e-05 0.001459 -5.998973 -40.466482 -3.992396 49.738391 66.115224 -28.661851 41.845456 -54.271684 -17.538825 -179.999963 75.748935 -0.0 -159.867581 5.583836 -85.158516 -64.640531 3.079346 89.027278 26.893414 13.068755 -12.37932
